<!-- created by svgstack.com | Attribution is required. --><svg width="201" height="201" viewBox="0 0 201 201" fill="none" xmlns="http://www.w3.org/2000/svg"><path d="M100.416 0.401123H99.9609C44.8582 0.401123 0.188721 45.0839 0.188721 100.203V100.658C0.188721 155.777 44.8582 200.46 99.9609 200.46H100.416C155.519 200.46 200.189 155.777 200.189 100.658V100.203C200.189 45.0839 155.519 0.401123 100.416 0.401123Z" fill="#383D38"/><path d="M150.236 54.504C141.029 50.2776 131.163 47.1656 120.842 45.3853C120.653 45.3502 120.464 45.4343 120.372 45.6096C119.104 47.8665 117.696 50.8173 116.715 53.1302C105.616 51.4691 94.5729 51.4691 83.698 53.1302C82.71 50.7612 81.2526 47.8665 79.9773 45.6096C79.8792 45.4413 79.6901 45.3572 79.5079 45.3853C69.1936 47.1656 59.3208 50.2776 50.1136 54.504C50.0366 54.5391 49.9665 54.5951 49.9174 54.6722C31.1948 82.6523 26.0656 109.946 28.5811 136.902C28.5951 137.035 28.6652 137.162 28.7703 137.239C41.1236 146.315 53.0916 151.825 64.8353 155.476C65.0245 155.532 65.2207 155.462 65.3398 155.308C68.1146 151.516 70.595 147.514 72.7182 143.302C72.8443 143.056 72.7181 142.762 72.4658 142.664C68.5349 141.171 64.8001 139.355 61.1986 137.295C60.9113 137.127 60.8904 136.72 61.1496 136.524C61.9064 135.956 62.6631 135.367 63.3848 134.772C63.5179 134.659 63.7001 134.638 63.8542 134.708C87.4888 145.502 113.078 145.502 136.433 134.708C136.587 134.631 136.769 134.659 136.902 134.765C137.624 135.36 138.38 135.956 139.144 136.524C139.403 136.72 139.39 137.127 139.102 137.295C135.508 139.397 131.766 141.178 127.828 142.664C127.569 142.762 127.456 143.056 127.583 143.309C129.755 147.507 132.228 151.509 134.954 155.308C135.066 155.469 135.269 155.539 135.458 155.483C147.258 151.832 159.226 146.322 171.579 137.246C171.685 137.169 171.755 137.042 171.769 136.916C174.782 105.754 166.724 78.6852 150.418 54.6863C150.376 54.6092 150.313 54.5461 150.229 54.511L150.236 54.504ZM76.2355 120.487C69.1164 120.487 63.2587 113.955 63.2587 105.929C63.2587 97.904 69.0113 91.3716 76.2355 91.3716C83.4597 91.3716 89.3315 97.9671 89.2124 105.929C89.2124 113.955 83.4597 120.487 76.2355 120.487ZM124.226 120.487C117.107 120.487 111.25 113.955 111.25 105.929C111.25 97.904 117.002 91.3716 124.226 91.3716C131.45 91.3716 137.322 97.9671 137.203 105.929C137.203 113.955 131.514 120.487 124.226 120.487Z" fill="white"/></svg> 