<!-- created by svgstack.com | Attribution is required. --><svg width="201" height="202" viewBox="0 0 201 202" fill="none" xmlns="http://www.w3.org/2000/svg"><path d="M100.355 201.018H99.9151C44.897 201.018 0.135132 156.243 0.135132 101.209V100.769C0.135132 45.7344 44.897 0.959229 99.9151 0.959229H100.355C155.373 0.959229 200.135 45.7344 200.135 100.769V101.209C200.135 156.243 155.373 201.018 100.355 201.018ZM99.9151 7.73101C48.6272 7.73101 6.90493 49.4656 6.90493 100.769V101.209C6.90493 152.512 48.6272 194.246 99.9151 194.246H100.355C151.643 194.246 193.365 152.512 193.365 101.209V100.769C193.365 49.4656 151.643 7.73101 100.355 7.73101H99.9151Z" fill="#383D38"/><path d="M113.59 78.5572V99.6106H139.627L135.504 127.971H113.59V193.312C109.196 193.921 104.701 194.24 100.138 194.24C94.8716 194.24 89.6995 193.82 84.6627 193.007V127.971H60.6503V99.6106H84.6627V73.8508C84.6627 57.8694 97.6133 44.9082 113.597 44.9082V44.9218C113.644 44.9218 113.685 44.9082 113.732 44.9082H139.633V69.4356H122.709C117.679 69.4356 113.597 73.519 113.597 78.5504L113.59 78.5572Z" fill="#383D38"/></svg> 